<svg id="svg12436" xmlns:rdf="http://www.w3.org/1999/02/22-rdf-syntax-ns#" xmlns="http://www.w3.org/2000/svg" height="36" width="36" version="1.1" xmlns:cc="http://creativecommons.org/ns#" xmlns:dc="http://purl.org/dc/elements/1.1/">
 <g id="layer1" transform="translate(0 -1016.4)">
  <g id="g13649">
   <path id="path12490" d="m0 1027.5v-1.0255h1.0255v-1.0255h1.0255 1.0255v-1.0255h1.0255v-1.0255h1.0255 1.0255v-1.0255-1.0255h-1.0255v-1.0255h1.0255v1.0255h1.0255v-1.0255h1.0255v1.0255 1.0255h1.0255v1.0255 1.0255h1.0255v1.0255h1.0255v1.0255 1.0255h1.0255v1.0255h1.0255v1.0255h13.331v1.0255h1.0255 2.051v1.0254h-1.0255v1.0255h1.0255v1.0255h1.0255v3.0765h1.0255v3.0765h1.0255v2.051h1.0255v1.6505h1.0255v1.0255 1.0255h1.0255v6.6761h-2.051v-2.051h1.0255v-2.5741h-1.0255v-2.051h-1.0255v-1.0255h-1.0255v-1.0255h-1.0255v-1.6505h-1.0255v-1.0255h-1.0255-1.0255v-1.0255-1.0255h-1.0255v1.0255 5.2551h1.0255v1.0255 1.0255 1.0255 1.0255h-1.0255v1.0255h-1.0255v1.0255h-1.0255v1.0255h-3.0765v-1.0255h1.0255v-1.0255h2.051v-1.0255h1.0255v-3.0765h-1.0255v-1.0255h-1.0255v-4.2296h-1.0255v-4.102h-1.0255v1.0255h-2.051v1.0255h-4.102v1.0255h-2.051v7.1785h1.0255v1.0255h-1.0255l-0.19092 2.1942h-1.0255v1.0255h-1.0255v1.0255h-3.0765v-1.0255h1.0255v-1.0255h1.0255l0.93593-0.8841v-3-3h-1l-0.038013-2.4886v-1.0255l-0.7325-2.051v-1.0255h-1.0255v-1.0255h-1.0255v-1.0255l0.36625-3.2779v-1.0255l-0.47612-0.824-0.91562-1.0255v-1.0255h-1.0255-1.0255-1.0255v1.0255h-2.051v-1.0255z" fill="#764220"/>
  </g>
  <path id="rect13000" style="color:#000000" d="m4.0281 1024.4h1.0255v1.0255h-1.0255z" fill="#f95"/>
  <path id="rect13000-9" opacity=".61468" style="color:#000000" d="m8.0055 1051.3h1.0255v1.0255h-1.0255z" fill="#d45500"/>
  <path id="rect13000-9-7" opacity=".61468" style="color:#000000" d="m9.031 1051.3h1.0255v1.0255h-1.0255z" fill="#d45500"/>
  <path id="rect13000-9-0" opacity=".61468" style="color:#000000" d="m10.056 1051.3h1.0255v1.0255h-1.0255z" fill="#d45500"/>
  <path id="rect13000-9-76" opacity=".61468" style="color:#000000" d="m21.552 1051.2h1.0255v1.0255h-1.0255z" fill="#d45500"/>
  <path id="rect13000-9-4" opacity=".61468" style="color:#000000" d="m22.577 1051.2h1.0255v1.0255h-1.0255z" fill="#d45500"/>
  <path id="rect13000-9-8" opacity=".61468" style="color:#000000" d="m23.603 1051.2h1.0255v1.0255h-1.0255z" fill="#d45500"/>
  <path id="rect13000-9-46" opacity=".61468" style="color:#000000" d="m33.858 1051.3h1.0255v1.0255h-1.0255z" fill="#d45500"/>
  <path id="rect13000-9-41" opacity=".61468" style="color:#000000" d="m34.883 1051.3h1.0255v1.0255h-1.0255z" fill="#d45500"/>
  <path id="rect13000-9-5" opacity=".61468" style="color:#000000" d="m34.883 1050.3h1.0255v1.0255h-1.0255z" fill="#d45500"/>
  <path id="rect13000-9-09" opacity=".61468" style="color:#000000" d="m33.858 1050.3h1.0255v1.0255h-1.0255z" fill="#d45500"/>
  <path id="rect13000-9-9" opacity=".61468" style="color:#000000" d="m22.577 1050.2h1.0255v1.0255h-1.0255z" fill="#d45500"/>
  <path id="rect13000-9-70" opacity=".61468" style="color:#000000" d="m23.603 1050.2h1.0255v1.0255h-1.0255z" fill="#d45500"/>
  <path id="rect13000-9-02" opacity=".61468" style="color:#000000" d="m24.628 1050.2h1.0255v1.0255h-1.0255z" fill="#d45500"/>
  <path id="rect13000-9-020" opacity=".61468" style="color:#000000" d="m9.031 1050.3h1.0255v1.0255h-1.0255z" fill="#d45500"/>
  <path id="rect13000-9-1" opacity=".61468" style="color:#000000" d="m10.056 1050.3h1.0255v1.0255h-1.0255z" fill="#d45500"/>
  <path id="rect13000-9-2" opacity=".61468" style="color:#000000" d="m11.082 1050.3h1.0255v1.0255h-1.0255z" fill="#d45500"/>
  <path id="rect13000-9-83-6-5" opacity=".22477" style="color:#000000" d="m18.475 1037.7h1.0255v1.0255h-1.0255z"/>
  <path id="rect13000-9-83-6-5-7" opacity=".22477" style="color:#000000" d="m17.45 1037.7h1.0255v1.0255h-1.0255z"/>
  <path id="rect13000-9-83-6-5-9" opacity=".22477" style="color:#000000" d="m16.424 1037.7h1.0255v1.0255h-1.0255z"/>
  <path id="rect13000-9-83-6-5-0" opacity=".22477" style="color:#000000" d="m15.399 1037.7h1.0255v1.0255h-1.0255z"/>
  <path id="rect13000-9-83-6-5-8" opacity=".22477" style="color:#000000" d="m14.373 1038.8h1.0255v1.0255h-1.0255z"/>
  <path id="rect13000-9-83-6-5-4" opacity=".22477" style="color:#000000" d="m13.348 1038.8h1.0255v1.0255h-1.0255z"/>
  <path id="rect13000-9-09-0" opacity=".61468" style="color:#000000" d="m34.883 1049.2h1.0255v1.0255h-1.0255z" fill="#d45500"/>
  <path id="rect13000-9-09-06" opacity=".61468" style="color:#000000" d="m34.883 1048.2h1.0255v1.0255h-1.0255z" fill="#d45500"/>
  <path id="rect13000-9-09-3" opacity=".61468" style="color:#000000" d="m24.628 1049.2h1.0255v1.0255h-1.0255z" fill="#d45500"/>
  <path id="rect13000-9-09-4" opacity=".61468" style="color:#000000" d="m25.654 1048.2h1.0255v1.0255h-1.0255z" fill="#d45500"/>
  <path id="rect13000-9-09-05" opacity=".61468" style="color:#000000" d="m25.654 1047.1h1.0255v1.0255h-1.0255z" fill="#d45500"/>
  <path id="rect13000-9-09-46" opacity=".61468" style="color:#000000" d="m7.1948 1034.7h1.0255v1.0255h-1.0255z" fill="#d45500"/>
  <path id="rect13000-9-09-1" opacity=".61468" style="color:#000000" d="m8.2203 1035.7h1.0255v1.0255h-1.0255z" fill="#d45500"/>
  <path id="rect13000-9-09-2" opacity=".61468" style="color:#000000" d="m8.2203 1034.7h1.0255v1.0255h-1.0255z" fill="#d45500"/>
  <path id="rect13000-9-09-01" opacity=".61468" style="color:#000000" d="m7.1948 1033.6h1.0255v1.0255h-1.0255z" fill="#d45500"/>
  <path id="rect13000-9-83-6-5-7-9" opacity=".22477" style="color:#000000" d="m5.1438 1020.3h1.0255v1.0255h-1.0255z"/>
  <path id="rect13000-9-83-6-5-7-1" opacity=".22477" style="color:#000000" d="m6.1693 1021.3h1.0255v1.0255h-1.0255z"/>
  <path id="rect13000-9-83-6-5-7-4" opacity=".22477" style="color:#000000" d="m6.1693 1022.4h1.0255v1.0255h-1.0255z"/>
  <path id="rect13000-9-83-6-5-7-5" opacity=".22477" style="color:#000000" d="m5.1438 1020.3h1.0255v1.0255h-1.0255z"/>
  <path id="rect13000-9-83-6-5-7-8" opacity=".22477" style="color:#000000" d="m6.1693 1021.3h1.0255v1.0255h-1.0255z"/>
  <path id="rect13000-9-83-6-5-7-57" opacity=".22477" style="color:#000000" d="m6.1693 1022.4h1.0255v1.0255h-1.0255z"/>
  <path id="rect13000-9-83-6-5-7-90" opacity=".22477" style="color:#000000" d="m0.016272 1026.5h1.0255v1.0255h-1.0255z"/>
  <path id="rect13000-9-83-6-5-7-19" opacity=".22477" style="color:#000000" d="m0.016272 1026.5h1.0255v1.0255h-1.0255z"/>
  <path id="rect13000-9-83-6-5-7-57-1" opacity=".22477" style="color:#000000" d="m4.1693 1024.4h1.0255v1.0255h-1.0255z"/>
  <path id="rect13000-9-83-6-5-7-57-8" opacity=".22477" style="color:#000000" d="m4.1693 1024.4h1.0255v1.0255h-1.0255z"/>
 </g>
</svg>
