<svg height="36" width="36">
 <g id="layer1" transform="translate(-257.7 -471.22)">
  <path id="path10493" fill="#fff" d="m257.7 502.31v-4.9091h1.1161 1.1161v-4.6116-4.6116h-1.1161-1.1161v-1.3388-1.3388h1.2556 1.2556v1.1901 1.1901h2.0927 2.0927v-1.1901-1.1901h7.8129 7.8129v-1.1901-1.1901h1.1161 1.1161v-2.2314-2.2314h-1.1161-1.1161v-1.3388-1.3388h1.1161 1.1161v-1.0413-1.0413h-1.1161-1.1161v-1.3388-1.3388h1.2556 1.2556v1.1901 1.1901h1.1161 1.1161v1.1901 1.1901h1.1161 1.1161v2.3802 2.3802h1.1161 1.1161v1.1901 1.1901h1.1161 1.1161v1.1901 1.1901h1.1161 1.1161v1.3388 1.3388h-1.1161-1.1161v1.1901 1.1901h-1.2556-1.2556v-1.1901-1.1901h-0.97661-0.97662v1.1901 1.1901h-1.1161-1.1161v1.1901 1.1901h-1.1161-1.1161v2.3802 2.3802h-1.1161-1.1161v4.7603 4.7603h-1.2556-1.2556v-3.5702-3.5702h-0.97662-0.97661v3.5702 3.5702h-1.2556-1.2556v-3.719-3.719h1.1161 1.1161v-1.0413-1.0413h-5.4411-5.4411v1.0413 1.0413h1.1161 1.1161v3.719 3.719h-1.2556-1.2556v-3.5702-3.5702h-2.0927-2.0927v3.5702 3.5702h-1.2556-1.2556zm26.787-24.992v-1.0413h-0.97661-0.97661v1.0413 1.0413h0.97661 0.97661z"/>
  <rect id="use11032" style="color:#000000" fill-opacity=".16588" height="2.3678" width="2.2206" y="480.75" x="287.17"/>
  <rect id="use11034" style="color:#000000" fill-opacity=".16588" height="2.3678" width="2.2206" y="480.75" x="287.17"/>
  <rect id="use11036" style="color:#000000" fill-opacity=".16588" height="1.8242" width="1.7109" y="481.02" x="287.42"/>
  <rect id="use11038" style="color:#000000" fill-opacity=".16588" height="2.5922" width="2.4311" y="485.46" x="277.52"/>
  <rect id="use11040" style="color:#000000" fill-opacity=".16588" height="2.5922" width="2.4311" y="487.93" x="280.08"/>
  <rect id="use11042" style="color:#000000" fill-opacity=".16588" height="2.5922" width="2.4311" y="490.41" x="282.4"/>
  <rect id="use11044" style="color:#000000" fill-opacity=".16588" height="2.5922" width="2.4311" y="490.36" x="280.08"/>
  <rect id="use11046" style="color:#000000" fill-opacity=".16588" height="2.5922" width="2.4311" y="492.79" x="280.08"/>
  <rect id="use11048" style="color:#000000" fill-opacity=".16588" height="2.5922" width="2.4311" y="495.22" x="280.08"/>
  <rect id="use11050" style="color:#000000" fill-opacity=".16588" height="2.5922" width="2.4311" y="495.22" x="277.95"/>
  <rect id="use11078" style="color:#000000" fill-opacity=".16588" height="2.5922" width="2.4311" y="504.59" x="257.7"/>
  <rect id="use11080" style="color:#000000" fill-opacity=".16588" height="2.5922" width="2.4311" y="504.59" x="257.7"/>
  <rect id="use11082" style="color:#000000" fill-opacity=".16588" height="2.5922" width="2.4311" y="504.59" x="257.7"/>
  <rect id="use11084" style="color:#000000" fill-opacity=".16588" height="2.5922" width="2.4311" y="504.59" x="257.7"/>
  <rect id="use11086" style="color:#000000" fill-opacity=".16588" height="2.5922" width="2.4311" y="487.91" x="284.65"/>
  <rect id="use11088" style="color:#000000" fill-opacity=".16588" height="2.5922" width="2.4311" y="485.27" x="284.65"/>
  <rect id="use11090" style="color:#000000" fill-opacity=".16588" height="2.5922" width="2.4311" y="495.27" x="266.89"/>
  <rect id="use11092" style="color:#000000" fill-opacity=".16588" height="2.5922" width="2.4311" y="495.27" x="269.26"/>
  <rect id="use11094" style="color:#000000" fill-opacity=".16588" height="2.5922" width="2.4311" y="495.27" x="271.64"/>
  <rect id="use11098" style="color:#000000" fill-opacity=".16588" height="2.5922" width="2.4311" y="504.59" x="264.39"/>
  <rect id="use11100" style="color:#000000" fill-opacity=".16588" height="2.5922" width="2.4311" y="504.59" x="264.39"/>
  <rect id="use11102" style="color:#000000" fill-opacity=".16588" height="2.5922" width="2.4311" y="504.59" x="264.39"/>
  <rect id="use11104" style="color:#000000" fill-opacity=".16588" height="2.5922" width="2.4311" y="504.59" x="264.39"/>
  <rect id="use11106" style="color:#000000" fill-opacity=".16588" height="2.5922" width="2.4311" y="504.59" x="273.32"/>
  <rect id="use11108" style="color:#000000" fill-opacity=".16588" height="2.5922" width="2.4311" y="504.59" x="273.32"/>
  <rect id="use11110" style="color:#000000" fill-opacity=".16588" height="2.5922" width="2.4311" y="504.59" x="273.32"/>
  <rect id="use11112" style="color:#000000" fill-opacity=".16588" height="2.5922" width="2.4311" y="504.59" x="273.32"/>
  <rect id="use11114" style="color:#000000" fill-opacity=".16588" height="2.5922" width="2.4311" y="504.59" x="277.79"/>
  <rect id="use11116" style="color:#000000" fill-opacity=".16588" height="2.5922" width="2.4311" y="504.59" x="277.79"/>
  <rect id="use11118" style="color:#000000" fill-opacity=".16588" height="2.5922" width="2.4311" y="504.59" x="277.79"/>
  <rect id="use11120" style="color:#000000" fill-opacity=".16588" height="2.5922" width="2.4311" y="504.59" x="277.79"/>
  <rect id="use11036-8" style="color:#000000" fill-opacity=".16588" height="2.1836" width="2.0479" y="475.92" x="284.56"/>
  <rect id="use11036-1" style="color:#000000" fill-opacity=".16588" height="2.1836" width="2.0479" y="478.1" x="284.56"/>
  <rect id="use11036-9" style="color:#000000" fill-opacity=".16588" height="2.4288" width="2.2778" y="473.74" x="282.42"/>
  <rect id="use11036-7" style="color:#000000" fill-opacity=".16588" height="2.3629" width="2.2161" y="471.34" x="280.18"/>
 </g>
</svg>
